<?xml version="1.0" standalone="no"?>
<!DOCTYPE svg PUBLIC "-//W3C//DTD SVG 20010904//EN"
 "http://www.w3.org/TR/2001/REC-SVG-20010904/DTD/svg10.dtd">
<svg version="1.0" xmlns="http://www.w3.org/2000/svg"
 width="400.000000pt" height="400.000000pt" viewBox="0 0 400.000000 400.000000"
 preserveAspectRatio="xMidYMid meet">
<metadata>
Created by potrace 1.11, written by Peter Selinger 2001-2013
</metadata>
<g transform="translate(0.000000,400.000000) scale(0.100000,-0.100000)"
fill="#000000" stroke="none">
<path d="M643 3988 c1 -8 -10 -14 -25 -16 -50 -6 -37 -22 47 -59 40 -18 45
-22 25 -23 -19 -1 -12 -7 35 -30 33 -16 72 -29 87 -30 15 0 30 -4 33 -10 4 -6
-6 -10 -24 -10 -16 0 -32 -4 -35 -9 -7 -11 54 -48 92 -57 67 -15 68 -15 48
-30 -10 -7 -15 -17 -12 -22 9 -15 89 -32 148 -32 53 -1 53 -1 26 -16 -16 -8
-28 -18 -28 -23 0 -11 50 -21 102 -21 34 0 39 -2 28 -15 -21 -26 0 -35 81 -35
l79 0 -6 -27 c-7 -26 -7 -26 35 -19 40 6 42 5 36 -15 -7 -21 -5 -22 44 -16 50
6 52 5 45 -15 -6 -20 -3 -21 35 -15 38 5 43 3 51 -19 10 -27 17 -28 54 -14 21
8 26 6 31 -11 6 -19 8 -19 32 -4 20 13 27 14 40 4 39 -33 57 -37 90 -17 45 27
52 5 14 -42 -17 -21 -31 -41 -31 -45 0 -4 40 -24 60 -30 33 -8 49 -19 52 -32
2 -9 12 -18 23 -19 11 -2 35 -6 54 -10 18 -4 36 -3 40 2 15 22 75 56 107 61
41 7 43 22 8 69 -35 45 -19 91 17 48 11 -14 14 -13 29 6 16 22 18 22 42 6 20
-13 27 -14 30 -4 4 11 8 10 21 -1 14 -11 18 -11 23 4 5 13 17 16 53 14 35 -3
46 0 46 11 0 14 15 15 70 7 6 -1 11 9 13 23 3 23 6 25 52 22 47 -4 65 7 40 23
-21 13 -9 24 16 15 14 -6 34 -10 45 -10 16 0 18 5 13 25 -6 25 -6 25 69 25 78
0 109 14 85 38 -9 9 0 12 38 12 56 0 94 9 94 21 0 5 -12 15 -27 23 -28 15 -28
15 27 16 52 0 170 28 170 40 0 3 -17 12 -37 20 l-38 14 72 12 c73 13 128 33
90 34 -9 0 -25 4 -35 10 -9 5 -30 15 -47 22 -30 11 -30 12 25 18 67 8 130 28
130 41 0 5 -10 14 -22 18 l-23 9 25 5 c14 3 39 8 57 11 45 7 103 33 103 45 0
6 -23 11 -52 11 -51 1 -52 1 -28 15 22 13 -2 14 -213 15 l-238 0 -65 -37 c-93
-54 -162 -96 -309 -185 -173 -105 -269 -149 -363 -164 -37 -6 -39 -4 -81 50
-32 41 -50 56 -68 56 -31 0 -63 -17 -63 -33 0 -21 -60 -77 -83 -77 -50 1 -199
64 -310 133 -201 123 -239 144 -353 202 l-111 55 -227 0 c-175 0 -225 -3 -223
-12z"/>
<path d="M3980 3940 c0 -5 5 -10 10 -10 6 0 10 5 10 10 0 6 -4 10 -10 10 -5 0
-10 -4 -10 -10z"/>
<path d="M13 3793 c-10 -3 -13 -58 -13 -223 l0 -219 146 4 c88 3 152 9 160 16
8 7 33 9 63 6 28 -3 51 -1 53 3 2 5 51 0 109 -12 l106 -22 26 21 27 21 -35 31
c-20 17 -42 31 -49 31 -7 0 -30 18 -50 41 -35 37 -36 41 -21 53 20 15 6 29
-38 40 -17 4 -31 16 -37 31 -10 26 -45 45 -83 45 -12 0 -27 8 -34 18 -13 21
-88 45 -124 40 -18 -2 -24 2 -24 17 0 22 -57 47 -87 39 -9 -3 -31 2 -47 10
-17 9 -31 16 -33 15 -2 0 -9 -3 -15 -6z"/>
<path d="M3437 3670 c-38 -21 -93 -92 -83 -108 7 -12 -22 -72 -35 -72 -5 0 -9
-7 -9 -15 0 -8 -5 -15 -11 -15 -6 0 -8 -9 -4 -20 3 -11 2 -20 -2 -20 -5 0 -18
-7 -29 -16 -19 -15 -19 -15 2 -9 16 4 23 0 27 -15 4 -15 0 -20 -13 -20 -10 0
-20 -6 -23 -13 -7 -20 33 -14 48 6 20 28 29 19 10 -10 -13 -19 -14 -28 -6 -31
6 -2 8 -8 5 -13 -3 -6 2 -21 10 -34 9 -14 12 -25 6 -25 -5 0 -10 -9 -10 -19 0
-20 -32 -37 -49 -26 -6 3 -15 -4 -21 -15 -6 -11 -15 -20 -21 -20 -16 0 -59
-36 -52 -44 3 -3 -1 -6 -10 -6 -10 0 -17 -8 -17 -19 0 -12 -13 -26 -32 -35
-40 -20 -56 -20 -60 1 -2 13 -11 8 -42 -22 l-39 -37 5 46 c3 25 4 46 1 46 -2
0 -12 -19 -23 -42 -12 -29 -19 -36 -20 -23 -1 18 -4 17 -27 -10 -15 -16 -24
-23 -21 -14 5 13 2 16 -13 12 -10 -3 -19 -12 -19 -20 0 -9 -6 -13 -15 -9 -8 3
-21 3 -28 0 -16 -6 -14 -50 2 -47 9 3 16 -32 12 -59 -1 -8 42 9 76 30 29 18
55 9 46 -15 -4 -10 -11 -21 -17 -25 -6 -4 -8 -10 -4 -13 3 -4 18 1 33 11 26
17 27 17 24 -1 -3 -11 -15 -25 -28 -32 -15 -7 -32 -30 -42 -59 -10 -26 -26
-55 -35 -63 -15 -15 -15 -13 -9 19 4 19 13 40 21 46 22 17 17 27 -10 20 -15
-4 -26 -1 -29 7 -3 7 -6 4 -6 -6 -1 -17 -3 -17 -16 -3 -18 17 -45 11 -45 -10
0 -8 -5 -14 -11 -14 -14 0 -40 26 -33 33 3 3 -1 18 -10 34 -13 24 -15 25 -16
7 0 -11 -9 -29 -20 -39 -13 -12 -18 -26 -15 -39 5 -19 5 -19 -5 -4 -7 12 -8
24 -1 36 11 21 3 92 -10 92 -18 0 -8 29 17 47 27 20 25 53 -3 53 -8 0 -11 5
-8 10 3 6 -1 10 -10 10 -12 0 -15 6 -10 20 4 13 1 22 -8 25 -19 8 -15 40 12
76 25 33 82 63 143 74 20 4 48 19 63 35 l28 29 -25 6 c-31 8 -121 -33 -176
-81 -55 -46 -118 -70 -106 -40 4 11 0 13 -18 9 -28 -8 -98 -64 -98 -79 0 -13
-29 -28 -48 -25 -6 1 -27 -5 -45 -12 -61 -28 -72 -31 -123 -32 -54 -1 -99 -27
-99 -55 0 -11 -11 -15 -38 -15 -48 0 -59 -18 -43 -66 19 -54 6 -69 -52 -63
-49 5 -79 -6 -68 -25 4 -6 16 -11 27 -11 10 0 19 -5 19 -11 0 -6 7 -9 15 -5 8
3 15 1 15 -4 0 -6 9 -10 19 -10 24 0 36 -30 19 -45 -36 -33 -89 -36 -168 -7
-8 3 -18 4 -22 4 -5 -1 -8 2 -8 8 0 5 -18 21 -41 36 -40 25 -41 26 -22 46 18
20 18 21 -7 12 -56 -19 -126 0 -213 59 -15 10 -51 26 -80 35 -37 13 -52 22
-51 35 1 9 -6 17 -15 18 -47 2 -115 -4 -165 -15 -46 -11 -58 -11 -67 0 -6 8
-15 11 -20 8 -18 -11 -8 23 11 41 30 27 17 29 -29 5 -23 -11 -47 -32 -53 -45
-13 -29 -23 -31 -36 -9 -11 20 -32 10 -32 -15 0 -10 -3 -20 -6 -23 -6 -6 -75
19 -84 31 -5 7 -47 31 -54 31 -11 0 -13 -45 -4 -66 10 -21 8 -28 -9 -46 -15
-14 -27 -18 -40 -13 -10 4 -31 9 -46 10 -16 2 -35 11 -42 21 -8 11 -15 14 -15
7 0 -18 52 -71 81 -82 22 -8 26 -16 25 -40 -1 -26 -8 -35 -45 -53 -38 -19 -41
-23 -27 -33 23 -17 20 -32 -11 -49 -17 -9 -22 -15 -12 -16 12 0 15 -9 12 -41
-2 -22 -8 -50 -14 -61 -6 -11 -7 -18 -2 -15 6 4 16 -25 23 -64 11 -60 17 -70
37 -75 13 -4 27 -4 30 -1 3 3 -6 9 -21 13 -28 7 -33 23 -15 41 14 14 24 31 71
121 42 78 81 116 115 109 12 -2 24 1 26 6 2 6 15 -11 30 -37 21 -38 23 -48 12
-53 -8 -3 -15 -13 -15 -23 0 -10 -7 -20 -15 -24 -8 -3 -15 -15 -15 -26 0 -21
-10 -26 -26 -11 -5 6 -28 14 -51 19 -54 12 -73 -4 -66 -58 3 -21 1 -52 -5 -69
-7 -19 -7 -33 -1 -36 5 -4 9 -15 9 -27 0 -18 4 -19 43 -14 136 18 134 18 141
1 6 -17 -22 -75 -36 -75 -4 0 -8 -6 -8 -14 0 -8 -3 -16 -8 -18 -4 -1 -31 -50
-60 -107 -39 -77 -52 -114 -52 -147 0 -35 -5 -47 -25 -60 -29 -19 -33 -44 -8
-44 54 0 152 -35 202 -73 29 -23 55 -47 58 -54 3 -7 9 -10 14 -7 13 7 11 -10
-2 -23 -7 -7 -8 -22 -1 -47 6 -20 7 -34 2 -31 -5 3 -11 19 -15 35 -4 17 -13
37 -22 45 -13 13 -18 11 -46 -18 -59 -59 -140 -127 -152 -127 -17 0 -74 -27
-176 -82 -47 -26 -121 -58 -165 -71 -47 -13 -96 -35 -119 -54 -49 -38 -87 -50
-192 -58 -70 -5 -142 1 -230 20 l-23 5 0 -635 0 -635 661 0 660 0 -7 22 c-11
35 -12 81 -3 98 22 39 49 111 49 127 0 11 5 24 11 30 6 6 12 24 13 40 2 15 8
38 14 50 24 45 25 106 3 154 -32 68 -42 110 -30 125 6 7 17 10 25 7 8 -3 14 0
14 6 0 6 7 11 15 11 8 0 15 2 15 5 0 16 -42 85 -51 85 -6 0 -9 7 -5 15 3 8 2
15 -2 15 -4 0 -13 13 -19 28 -7 15 -42 59 -78 97 -36 37 -65 74 -65 82 0 8 -7
28 -16 45 -10 19 -12 34 -6 40 11 11 24 -4 27 -31 2 -22 23 -71 30 -71 4 0 3
5 0 10 -3 6 -1 10 4 10 6 0 11 -8 11 -18 0 -18 78 -106 117 -132 15 -9 19 -16
11 -21 -7 -5 -2 -16 17 -33 30 -28 47 -33 44 -13 -1 6 -1 20 0 29 2 26 31 10
31 -17 0 -12 7 -29 16 -36 21 -18 76 -104 115 -181 17 -35 50 -88 73 -118 23
-30 45 -64 50 -75 11 -30 -47 28 -87 87 -17 26 -35 48 -39 48 -4 0 -6 -22 -6
-48 1 -30 -5 -57 -16 -75 -14 -21 -16 -33 -8 -56 10 -27 8 -30 -28 -47 -21
-10 -36 -22 -34 -26 3 -5 -6 -13 -19 -19 -39 -18 -51 -49 -39 -104 13 -62 8
-74 -39 -81 -51 -8 -53 -31 -2 -25 6 1 14 -8 18 -19 6 -19 14 -20 166 -20 197
0 214 6 224 79 4 27 4 59 0 70 -7 23 7 28 22 9 25 -32 32 -77 18 -105 -8 -16
-15 -34 -15 -40 0 -10 137 -13 649 -13 363 0 652 4 655 9 5 8 -8 20 -65 64
-38 28 -32 51 28 106 32 29 70 64 85 79 33 32 38 29 88 -66 25 -48 41 -68 57
-70 34 -5 46 36 38 135 -7 81 -7 83 18 94 32 15 89 4 111 -20 17 -18 16 -20 0
-29 -15 -8 -16 -14 -7 -34 8 -18 7 -28 -3 -43 -8 -10 -14 -28 -14 -40 0 -12
-4 -25 -9 -30 -4 -6 -11 -22 -15 -38 -8 -34 16 -46 89 -41 40 2 58 -3 89 -23
27 -18 41 -22 49 -14 6 6 21 11 34 11 13 0 23 5 23 10 0 6 -7 10 -15 10 -18 0
-19 4 -2 33 18 32 27 37 74 37 32 0 45 -5 53 -20 9 -16 8 -20 -5 -20 -8 0 -15
-5 -15 -11 0 -7 -12 -9 -31 -7 -28 4 -33 1 -45 -28 -8 -18 -14 -38 -14 -44 0
-6 44 -10 119 -10 l120 0 -2 317 -2 316 -24 2 c-28 2 -72 -40 -91 -85 -6 -15
-29 -38 -50 -51 -48 -29 -52 -62 -15 -116 13 -20 22 -40 19 -44 -8 -13 15 -49
31 -49 8 0 15 -7 15 -15 0 -8 -3 -15 -7 -15 -5 0 -48 38 -98 85 -49 47 -97 87
-105 90 -8 3 -20 14 -25 26 -11 23 -93 59 -136 59 -15 0 -41 3 -58 6 -30 6
-32 9 -25 38 3 17 11 34 17 38 6 4 9 9 7 11 -11 9 -98 45 -135 56 -30 9 -57
31 -110 91 -38 43 -73 76 -77 74 -4 -3 -8 7 -8 22 0 19 -3 24 -12 17 -7 -5
-38 -8 -68 -7 -30 2 -65 3 -77 4 -12 0 -38 15 -56 34 -39 39 -87 66 -115 66
-11 0 -26 10 -35 23 -8 13 -55 50 -105 82 -60 40 -98 73 -116 100 -41 66 -58
76 -125 80 -36 2 -72 10 -87 20 -35 23 -64 27 -70 10 -4 -10 -21 2 -56 40 -31
34 -61 56 -81 61 -18 3 -47 18 -66 33 -54 42 -141 130 -141 142 0 8 4 8 13 2
6 -5 39 -24 72 -42 l60 -33 -63 62 c-35 33 -69 59 -75 57 -7 -2 -18 3 -25 12
-8 9 -10 10 -7 3 4 -8 -10 -2 -32 12 -21 14 -53 28 -71 32 -17 4 -32 13 -32
20 0 20 13 18 73 -11 l52 -26 -43 40 c-24 22 -59 45 -78 51 -19 6 -34 16 -34
21 0 5 11 4 26 -1 31 -12 50 -4 34 15 -8 10 -8 15 1 21 9 5 8 10 -5 19 -14 11
-13 13 15 19 17 3 39 1 49 -4 26 -14 43 -12 34 3 -4 7 -3 9 2 4 5 -5 9 -13 9
-19 0 -6 11 -13 24 -15 18 -2 22 0 17 12 -3 9 -2 13 4 10 6 -3 10 -2 10 4 0 6
7 8 16 4 13 -5 15 -2 10 15 -6 17 -1 22 29 32 47 16 44 29 -5 23 -36 -5 -40
-4 -33 12 5 14 3 17 -10 12 -10 -4 -17 -1 -17 6 1 30 30 41 59 23 11 -7 13 -5
9 6 -10 24 3 33 67 46 66 13 83 6 65 -27 -6 -12 -9 -25 -6 -30 3 -4 -6 -17
-19 -29 -21 -18 -75 -110 -75 -127 0 -16 28 -1 43 23 l18 27 -6 -53 c-2 -29
-12 -64 -21 -77 -9 -14 -12 -25 -6 -25 6 0 15 8 21 18 9 15 11 15 19 -7 7 -20
10 -21 15 -8 4 10 12 17 18 17 8 0 10 -17 7 -54 -3 -39 -1 -53 7 -49 14 5 45
-23 45 -41 0 -20 118 -176 133 -176 8 0 38 -13 68 -29 51 -26 153 -58 173 -53
32 9 86 7 101 -4 10 -8 28 -14 39 -14 20 0 20 0 0 16 -18 14 -17 15 14 11 17
-2 32 0 32 5 0 4 9 -1 20 -12 25 -25 42 -17 34 16 -3 13 -3 32 1 41 6 17 7 17
21 -1 13 -19 14 -18 14 11 0 26 3 30 20 26 11 -3 20 0 20 6 0 6 6 11 14 11 8
0 17 15 20 34 4 19 15 45 26 59 11 13 25 46 31 73 6 27 20 69 30 94 10 25 21
77 24 115 4 39 11 72 16 73 5 2 9 10 9 17 0 8 7 21 16 30 15 14 15 19 0 48
-25 53 -22 140 5 158 5 3 12 27 15 55 3 28 12 53 21 57 11 7 13 19 8 49 -4 22
-3 50 3 62 5 11 16 37 25 57 16 37 55 81 217 247 96 98 139 127 255 169 48 17
54 19 74 22 14 2 23 31 31 111 9 83 2 100 -39 100 -23 0 -112 -25 -163 -45
-13 -5 -18 -2 -18 9 0 10 6 13 15 10 11 -5 15 1 15 21 0 15 18 66 40 112 56
115 74 210 60 300 -6 37 -13 86 -16 108 -3 22 -7 50 -10 62 -10 51 -105 75
-167 43z m143 -240 c0 -5 -5 -10 -11 -10 -5 0 -7 5 -4 10 3 6 8 10 11 10 2 0
4 -4 4 -10z m-2145 -500 c3 -5 1 -10 -4 -10 -6 0 -11 5 -11 10 0 6 2 10 4 10
3 0 8 -4 11 -10z m1602 -92 c-3 -8 -6 -5 -6 6 -1 11 2 17 5 13 3 -3 4 -12 1
-19z m-2 -68 c3 -6 -4 -10 -17 -10 -18 0 -20 2 -8 10 19 12 18 12 25 0z m-183
-22 c-7 -7 -12 -8 -12 -2 0 6 3 14 7 17 3 4 9 5 12 2 2 -3 -1 -11 -7 -17z
m-72 -4 c0 -8 4 -13 9 -10 5 3 12 -1 15 -10 3 -8 2 -12 -4 -9 -6 3 -10 -1 -10
-10 0 -9 -4 -13 -10 -10 -5 3 -10 18 -10 33 l-1 27 -15 -27 c-19 -37 -26 -35
-13 2 11 31 39 42 39 14z m275 -14 c-9 -16 -20 -30 -25 -30 -5 0 -16 -15 -23
-32 -15 -35 -115 -143 -124 -134 -3 3 -14 1 -24 -5 -12 -6 -19 -6 -19 0 0 5 9
13 20 16 11 4 18 10 15 15 -3 5 0 12 6 16 9 5 7 11 -6 21 -18 12 -18 13 2 13
16 0 23 8 28 33 9 40 22 57 46 57 11 0 19 5 19 10 0 6 6 10 13 10 8 0 24 9 37
20 13 11 29 20 37 20 11 0 11 -5 -2 -30z m-15 -84 c0 -2 -7 -6 -15 -10 -8 -3
-15 -1 -15 4 0 6 7 10 15 10 8 0 15 -2 15 -4z m-980 -36 c0 -5 -9 -10 -20 -10
-11 0 -20 5 -20 10 0 6 9 10 20 10 11 0 20 -4 20 -10z m45 -61 c18 -1 23 -3
12 -6 -26 -7 -67 5 -67 19 0 9 3 9 12 0 7 -7 26 -13 43 -13z m-105 -4 c-7 -8
-17 -12 -22 -9 -6 4 -5 10 3 15 22 14 33 10 19 -6z m737 -67 c-3 -8 -6 -5 -6
6 -1 11 2 17 5 13 3 -3 4 -12 1 -19z m-1717 -73 c10 -12 10 -15 -3 -15 -8 0
-20 7 -27 15 -10 12 -10 15 3 15 8 0 20 -7 27 -15z m-39 -36 l24 -20 -27 4
c-16 2 -28 0 -28 -4 0 -5 -7 -6 -15 -3 -11 5 -12 11 -4 25 12 24 21 24 50 -2z
m1169 -69 c11 -7 12 -12 3 -21 -6 -6 -9 -19 -5 -27 3 -9 -7 -4 -24 11 -24 23
-27 29 -14 37 19 12 21 12 40 0z m10 -75 c-9 -10 -9 -15 -1 -15 16 0 14 -25
-3 -39 -11 -9 -23 -8 -52 4 -20 8 -47 13 -58 10 -21 -6 -21 -6 -1 6 11 7 22
16 25 20 3 4 22 10 43 12 21 2 41 7 44 11 13 12 15 6 3 -9z m-3 -105 c-4 -18
-2 -30 4 -30 6 0 7 -4 4 -10 -10 -17 -81 -12 -96 6 -12 15 -11 16 11 9 36 -11
45 -11 47 0 0 6 -3 9 -8 8 -14 -4 -11 5 8 27 25 29 36 25 30 -10z m-302 -270
c3 -5 2 -10 -4 -10 -5 0 -13 5 -16 10 -3 6 -2 10 4 10 5 0 13 -4 16 -10z
m-161 -85 c18 -14 16 -15 -30 -15 -47 1 -48 1 -24 15 31 18 31 18 54 0z m-394
-279 c-1 -21 -1 -21 -15 -2 -19 25 -19 37 0 30 8 -4 15 -16 15 -28z m61 4 c5
0 9 -10 8 -22 0 -13 -3 -17 -6 -10 -2 6 -9 12 -14 12 -6 0 -7 -5 -3 -12 4 -7
3 -8 -4 -4 -13 8 -16 49 -4 60 4 4 8 1 10 -8 2 -9 8 -16 13 -16z m83 -16 c4
-9 4 -19 1 -22 -3 -3 -5 0 -5 7 0 7 -4 9 -10 6 -5 -3 -10 1 -10 9 0 21 16 20
24 0z m-84 -54 c12 -8 11 -10 -7 -10 -13 0 -23 5 -23 10 0 13 11 13 30 0z
m-139 -157 c6 -29 14 -53 19 -53 4 0 10 -13 12 -30 5 -31 1 -35 -18 -22 -16
10 -34 94 -33 149 1 26 3 39 5 28 2 -11 9 -44 15 -72z m-46 -45 c4 -34 11 -74
15 -90 5 -15 5 -30 0 -33 -14 -9 -41 77 -46 150 -5 63 -4 68 9 52 9 -10 18
-46 22 -79z m80 -89 c11 -17 -1 -21 -15 -4 -8 9 -8 15 -2 15 6 0 14 -5 17 -11z
m95 -108 c-1 -13 -3 -13 -15 3 -19 26 -19 42 0 26 8 -7 15 -20 15 -29z m-21
-36 c25 -37 28 -45 11 -30 -21 19 -50 66 -50 81 0 9 -1 10 39 -51z m-801 -37
c-2 -13 -11 -24 -20 -26 -21 -4 -23 13 -5 33 18 21 29 18 25 -7z m1047 -108
c3 -5 1 -10 -4 -10 -6 0 -11 5 -11 10 0 6 2 10 4 10 3 0 8 -4 11 -10z m-5 -91
c0 -11 -4 -19 -10 -19 -13 0 -32 38 -25 51 10 14 35 -9 35 -32z m1040 -39 c78
-29 104 -44 145 -85 41 -40 47 -50 32 -53 -14 -3 -17 -10 -13 -28 5 -19 2 -25
-19 -30 -14 -3 -42 0 -62 7 -28 11 -37 20 -37 40 -2 36 -34 83 -49 71 -7 -6
-21 -12 -32 -14 -16 -3 -22 4 -31 32 -9 31 -14 35 -42 34 -30 -2 -32 0 -32 31
0 43 12 42 140 -5z m-943 -112 c11 -13 24 -34 28 -48 4 -14 18 -38 31 -53 13
-16 24 -35 24 -43 0 -8 5 -14 10 -14 6 0 10 -6 10 -12 -1 -14 -52 40 -112 119
-22 29 -37 57 -33 63 9 15 19 12 42 -12z m-359 -85 c2 -8 -5 -13 -17 -13 -21
0 -35 13 -24 24 10 10 36 3 41 -11z m1517 -23 c3 -5 2 -10 -4 -10 -5 0 -13 5
-16 10 -3 6 -2 10 4 10 5 0 13 -4 16 -10z m-1499 -35 c0 -40 -13 -45 -40 -13
-18 21 -18 22 0 35 29 21 40 15 40 -22z m1849 -15 c4 -6 -12 -10 -42 -10 -35
0 -44 3 -33 10 20 13 67 13 75 0z m483 -83 c27 -28 40 -47 33 -51 -11 -7 -111
87 -111 105 0 16 31 -6 78 -54z m90 -96 c32 -34 37 -51 18 -51 -7 0 -19 15
-27 33 -7 17 -18 35 -23 39 -6 4 -7 8 -3 8 5 0 21 -13 35 -29z m-1723 -31 c3
-5 3 -15 -1 -21 -6 -11 -23 6 -24 24 0 10 18 9 25 -3z m1790 -70 c-3 -5 -11
-10 -16 -10 -6 0 -7 5 -4 10 3 6 11 10 16 10 6 0 7 -4 4 -10z m-1142 -130 c-3
-11 -9 -17 -14 -15 -10 7 -1 35 11 35 5 0 6 -9 3 -20z"/>
<path d="M3131 3399 c-33 -27 -51 -48 -51 -62 0 -12 -9 -28 -20 -35 -11 -7
-20 -19 -20 -28 0 -8 5 -12 10 -9 14 8 13 -21 -2 -44 -7 -11 -19 -16 -30 -13
-13 3 -18 -1 -18 -16 0 -29 27 -35 45 -9 19 27 19 14 0 -38 -8 -22 -14 -49
-14 -60 0 -15 3 -14 11 8 5 15 14 25 19 21 5 -3 9 4 9 15 0 22 19 30 21 9 1
-15 37 61 38 79 1 8 -6 10 -16 6 -16 -6 -16 -5 -4 10 7 9 18 17 24 17 18 0 68
64 64 82 -3 9 1 26 9 36 12 17 12 21 -2 26 -10 4 -13 2 -8 -7 5 -9 4 -9 -7 1
-10 9 -10 15 -1 24 14 14 16 28 3 28 -4 0 -31 -18 -60 -41z"/>
<path d="M3944 3336 c-3 -8 4 -24 16 -36 19 -19 20 -47 0 -35 -9 6 -70 -42
-70 -56 0 -5 12 -4 27 2 14 5 32 8 40 5 18 -7 16 -36 -3 -36 -8 0 -29 -14 -47
-31 -26 -26 -29 -34 -19 -50 16 -25 15 -72 0 -88 -11 -10 -9 -12 7 -9 13 2 22
-5 29 -24 10 -29 -10 -85 -45 -123 -12 -14 -18 -34 -17 -59 1 -27 -4 -41 -16
-48 -13 -8 -15 -13 -5 -24 17 -21 49 -18 49 5 0 11 5 23 10 26 15 9 13 48 -2
39 -7 -4 -5 2 5 13 9 11 14 23 10 26 -3 4 -1 7 5 7 7 0 12 -7 12 -15 0 -8 5
-15 12 -15 6 0 8 -3 5 -7 -4 -3 -2 -12 4 -20 9 -10 7 -13 -10 -13 -11 0 -21
-4 -21 -10 0 -5 7 -10 16 -10 11 0 15 -6 11 -20 -3 -11 -1 -20 4 -20 5 0 9 -7
9 -16 0 -9 -5 -12 -12 -8 -7 4 -8 3 -4 -4 4 -7 -19 -38 -54 -73 -33 -34 -60
-69 -60 -77 0 -8 -17 -35 -38 -61 -21 -25 -51 -66 -65 -91 -15 -25 -48 -70
-72 -100 -24 -30 -44 -60 -45 -66 0 -10 -16 -33 -137 -191 -28 -37 -76 -82
-115 -110 -38 -25 -68 -48 -68 -50 0 -6 74 34 168 90 110 66 459 353 502 411
40 56 40 52 40 526 l0 460 -25 0 c-14 0 -28 -6 -31 -14z"/>
<path d="M2906 3225 c-18 -19 -37 -35 -43 -35 -5 0 -18 -10 -29 -22 -17 -19
-17 -21 -1 -15 9 4 17 2 17 -3 0 -6 -4 -10 -10 -10 -5 0 -10 -4 -10 -10 0 -20
33 -9 58 20 15 17 31 30 38 30 12 0 34 42 34 65 0 25 -21 17 -54 -20z"/>
<path d="M0 3124 c0 -31 3 -34 31 -34 17 0 39 -4 49 -10 22 -12 81 6 77 23 -4
22 -52 44 -105 49 l-52 5 0 -33z"/>
<path d="M2865 3110 c-3 -5 -2 -10 4 -10 5 0 13 5 16 10 3 6 2 10 -4 10 -5 0
-13 -4 -16 -10z"/>
<path d="M162 3090 c-11 -17 -10 -20 7 -20 11 0 23 5 26 10 3 6 0 10 -7 10 -9
0 -9 3 2 10 13 9 13 10 0 10 -8 0 -21 -9 -28 -20z"/>
<path d="M2830 3018 c0 -16 3 -17 20 -8 11 6 20 14 20 18 0 4 -9 8 -20 8 -13
0 -20 -7 -20 -18z"/>
<path d="M3885 2970 c-3 -5 -1 -10 4 -10 6 0 11 5 11 10 0 6 -2 10 -4 10 -3 0
-8 -4 -11 -10z"/>
<path d="M2700 2930 c-15 -28 -4 -39 17 -17 13 12 14 20 6 28 -8 8 -14 5 -23
-11z"/>
<path d="M2780 2924 c0 -8 5 -12 10 -9 6 4 8 11 5 16 -9 14 -15 11 -15 -7z"/>
<path d="M0 2395 c0 -8 4 -15 8 -15 5 0 9 7 9 15 0 8 -4 15 -9 15 -4 0 -8 -7
-8 -15z"/>
<path d="M197 2203 c-20 -20 7 -49 32 -34 8 5 6 12 -7 24 -10 9 -22 14 -25 10z"/>
<path d="M756 2191 c-4 -5 10 -19 30 -32 42 -26 67 -18 72 22 2 21 1 22 -8 7
-10 -16 -14 -17 -40 -3 -33 17 -47 19 -54 6z"/>
<path d="M315 2150 c3 -5 8 -10 11 -10 2 0 4 5 4 10 0 6 -5 10 -11 10 -5 0 -7
-4 -4 -10z"/>
<path d="M3986 2137 c3 -10 9 -15 12 -12 3 3 0 11 -7 18 -10 9 -11 8 -5 -6z"/>
<path d="M367 2132 c-15 -3 -16 -5 -2 -25 19 -28 19 -56 -1 -78 -9 -10 -17
-31 -18 -47 -1 -15 -10 -41 -20 -57 l-18 -28 36 -34 c20 -19 36 -36 36 -39 0
-2 -15 -17 -32 -33 l-33 -29 30 5 c28 5 29 5 10 -10 -10 -8 -25 -13 -32 -10
-8 3 -13 -3 -13 -16 0 -14 5 -19 15 -15 8 4 15 1 15 -5 0 -6 -5 -10 -12 -9
-13 3 -19 -90 -6 -98 4 -3 3 -14 -3 -25 -7 -14 -16 -18 -30 -14 -13 4 -21 1
-26 -12 -4 -10 -16 -30 -27 -46 -20 -27 -20 -27 0 -42 10 -8 32 -15 48 -15 28
0 28 0 12 25 l-16 25 43 -6 c35 -5 45 -3 50 10 4 9 15 16 26 16 11 0 27 7 36
16 14 14 22 15 56 5 28 -8 44 -9 59 -1 11 6 46 15 77 21 32 6 64 16 72 22 8 7
37 22 65 34 28 11 52 28 54 35 2 9 -19 25 -51 41 -30 14 -73 41 -95 59 -22 18
-62 47 -88 63 -76 48 -79 50 -81 63 -2 7 10 13 30 13 75 3 87 5 98 16 6 6 12
23 14 38 2 20 -3 29 -16 32 -11 3 -19 9 -19 14 0 10 -171 126 -202 137 -13 5
-31 7 -41 4z"/>
<path d="M3873 2097 c5 -15 29 -16 34 -2 2 6 -6 11 -18 12 -12 1 -19 -3 -16
-10z"/>
<path d="M770 2062 c1 -18 21 -36 56 -48 42 -14 47 -14 39 8 -6 14 -95 53 -95
40z"/>
<path d="M3921 1987 c-11 -11 -3 -39 10 -31 5 3 7 10 4 15 -4 5 1 9 9 9 9 0
16 4 16 8 0 12 -27 11 -39 -1z"/>
<path d="M3962 1968 c-17 -17 -15 -29 3 -22 8 4 15 1 15 -6 0 -6 4 -9 9 -6 10
7 3 46 -8 46 -4 0 -12 -5 -19 -12z"/>
<path d="M3617 1876 c-10 -14 -24 -26 -31 -26 -7 0 -20 -7 -27 -17 -13 -15
-12 -15 7 -5 12 6 23 9 26 7 8 -8 50 43 46 56 -2 7 -11 1 -21 -15z"/>
<path d="M3515 1849 c-4 -6 -5 -12 -2 -15 2 -3 7 2 10 11 7 17 1 20 -8 4z"/>
<path d="M161 1807 c-13 -21 -12 -21 5 -5 10 10 16 20 13 22 -3 3 -11 -5 -18
-17z"/>
<path d="M1780 1748 c3 -2 20 -15 38 -28 33 -22 33 -22 21 -1 -8 11 -17 21
-21 21 -3 0 -15 3 -25 7 -10 3 -16 4 -13 1z"/>
<path d="M200 1435 c0 -8 7 -15 15 -15 8 0 15 4 15 9 0 5 -7 11 -15 15 -9 3
-15 0 -15 -9z"/>
<path d="M3512 1220 c-96 -48 -129 -60 -168 -60 -101 -1 -250 -46 -241 -73 2
-7 32 -13 75 -14 96 -4 202 33 347 121 61 37 114 72 120 77 22 21 -19 6 -133
-51z"/>
<path d="M3643 494 c9 -16 35 -45 58 -64 24 -19 58 -50 77 -68 18 -19 35 -32
38 -29 6 6 -123 144 -159 169 l-29 21 15 -29z"/>
<path d="M1350 30 c0 -27 3 -30 30 -30 l31 0 -18 25 c-28 37 -43 39 -43 5z"/>
<path d="M3620 10 c0 -5 7 -10 15 -10 8 0 15 5 15 10 0 6 -7 10 -15 10 -8 0
-15 -4 -15 -10z"/>
</g>
</svg>
